<svg width="1374" height="211" viewBox="0 0 1374 211" fill="none" xmlns="http://www.w3.org/2000/svg">
<path d="M1283.06 79.6294L1327.3 79.3937L1317.87 121.722L1239.58 163.653L1323.52 163.458L1314.88 206.451L3.87317 205.635V174.269L254.21 3.87158H345.125C348.739 3.87158 354.319 4.15802 360.29 5.01548C365.948 5.83029 372.156 7.18993 377.185 9.42743L377.813 9.71793V9.72432C380.013 10.7538 381.978 11.8585 383.706 13.0017L389.129 16.5062L395.1 14.2223L419.931 3.87158H475.8L460.084 73.9618L595.395 3.87158H654.958L661.591 60.0275L677.936 51.7084L771.522 3.9545H831.083L836.662 57.3117L945.88 3.9545H1005.44L1007.17 19.6029L1045.36 3.9545L1355.11 3.95427L1347.02 46.2418L1283.06 79.6294Z" fill="black"/>
<path fill-rule="evenodd" clip-rule="evenodd" d="M1347.02 46.2418L1283.06 79.6294L1327.3 79.3937L1317.87 121.722L1239.58 163.653L1323.52 163.458L1314.88 206.451L3.87315 205.635V174.269L254.21 3.87156H345.125C348.739 3.87156 354.319 4.158 360.29 5.01546C365.948 5.83027 372.155 7.18991 377.185 9.42741L377.813 9.71791V9.72429C380.013 10.7537 381.978 11.8585 383.706 13.0017L389.129 16.5062L395.1 14.2223L419.931 3.87156H475.8L460.084 73.9618L595.395 3.87156H654.957L661.591 60.0275L677.936 51.7084L771.522 3.95448H831.083L836.662 57.3117L945.88 3.95448H1005.44L1007.17 19.6029L1045.36 3.95448L1355.11 3.95425L1347.02 46.2418ZM1010.46 14.0722L1044.6 0.0829235L1359.8 0.0826856L1350.47 48.8074L1299.01 75.6728L1332.13 75.4964L1321.26 124.295L1255.07 159.745L1328.26 159.575L1318.05 210.324L0 209.505V172.221L253.017 0H345.125C348.911 0 354.674 0.297802 360.841 1.18323L360.843 1.18347C366.643 2.01886 373.255 3.4416 378.759 5.8904L378.785 5.90161L381.686 7.24241V7.32396C383.172 8.10343 384.552 8.91917 385.826 9.76098C385.832 9.76485 385.837 9.76882 385.843 9.77269L389.581 12.188L393.663 10.6268L419.156 0H480.637L465.681 66.7021L594.452 0H658.4L664.786 54.0568L676.178 48.2583L770.59 0.0829228H834.573L839.939 51.4018L944.985 0.0829228H1008.91L1010.46 14.0722Z" fill="black"/>
<path d="M211.937 203.434L256.516 6.81104H345.116C352.081 6.81104 367.126 7.92506 376.6 12.3811C394.989 21.0147 401.397 38.5604 401.397 53.321C401.397 63.3471 398.61 73.3732 392.481 81.4497C383.008 94.2609 370.749 97.3244 360.997 99.8312C376.321 106.793 394.431 114.87 394.431 144.113C394.431 160.266 386.908 175.584 375.207 186.167C357.932 201.763 333.971 203.434 321.434 203.434H211.937ZM296.358 42.4593L286.606 84.2348H323.105C333.136 83.6778 353.474 82.8422 353.474 60.2835C353.474 43.5734 339.265 42.7379 331.742 42.4593H296.358ZM278.526 119.883L267.939 167.228H310.568C321.155 166.951 331.185 166.672 338.429 156.924C342.329 151.633 343.444 145.227 343.444 140.214C343.444 136.871 342.887 133.808 341.773 131.023C336.757 120.718 327.284 120.44 319.483 119.883H278.526Z" fill="white"/>
<path d="M423.409 6.81104H472.167L436.783 163.608H519.811L510.617 203.434H379.109L423.409 6.81104Z" fill="white"/>
<path d="M597.133 6.81104H652.3L673.196 203.434H625.274L622.767 164.444H550.326L528.594 203.434H477.05L597.133 6.81104ZM620.538 128.795L615.244 48.0294L570.386 128.795H620.538Z" fill="white"/>
<path d="M772.521 6.81104H827.687L848.583 203.434H800.661L798.154 164.444H725.713L703.981 203.434H652.437L772.521 6.81104ZM795.925 128.795L790.631 48.0294L745.774 128.795H795.925Z" fill="white"/>
<path d="M947.218 6.81104H1002.38L1023.28 203.434H975.356L972.848 164.444H900.41L878.677 203.434H827.133L947.218 6.81104ZM970.621 128.795L965.327 48.0294L920.471 128.795H970.621Z" fill="white"/>
<path d="M1040 45.2444L1048.92 6.81104H1204.67L1195.19 47.4724L1074.55 165.279H1176.25L1167.61 203.434H1005.17L1014.37 163.051L1134.73 45.2444H1040Z" fill="white"/>
<path d="M1201.88 6.81077L1351.43 6.81055L1343.9 44.6869L1241.44 44.6872L1232.8 82.5635H1322.8L1314.71 118.769H1224.72L1213.85 166.114H1319.84L1312.28 203.434H1157.02L1201.88 6.81077Z" fill="white"/>
</svg>
