<svg width="149" height="43" viewBox="0 0 149 43" fill="none" xmlns="http://www.w3.org/2000/svg">
<g clip-path="url(#clip0_6_9)">
<path d="M147 0.293182C108.8 0.293182 70.6 0.293182 32.4 0.293182H32L8.70002 13.975L0.400024 42.7068H139.6L149 0.293182H147ZM147 1.85682L138.3 41.2409H2.50002L10.1 15.1477L32.5 1.85682C70.6 1.85682 108.8 1.85682 147 1.85682Z" fill="black"/>
<path d="M147 1.85681L138.3 41.2409H2.5L10.1 15.1477L32.5 1.85681C70.6 1.85681 108.8 1.85681 147 1.85681Z" fill="#0089C8"/>
<path d="M96.2 4.49545L93.4 6.54773L93.2 4.49545H81.5L66.1 12.9L68 4.49545H56.2L54.2 5.96136L53.1 5.47273C52.1 4.98409 51.2 4.88636 50.2 4.78863C49 4.59318 48 4.59318 47.6 4.59318H32.8L12.5 16.7114L12.2 16.9068L6 38.6023H136L143.4 4.49545H96.2Z" fill="black"/>
<path fill-rule="evenodd" clip-rule="evenodd" d="M27.7 35.6705L34.4 6.84091H47.7C48.7 6.84091 51 7.03637 52.4 7.62273C55.1 8.89318 56.0999 11.4341 56.0999 13.5841L57.7 6.84091H65L59.7 29.8068H68.3L82.6999 6.84091H91L93.3999 29.025L110.7 12.4114H96.5L97.8 6.84091H121.1H140L138.7 12.4114H124.7L123.4 17.9818H137L135.8 23.2591H122.3L120.7 30.1977H134.8L133.6 35.6705H112.2H86.9L86.5 30.0023H75.6999L72.4 35.6705H51.0999L51.5999 33.7159C49.0999 35.475 46 35.6705 44.2 35.6705H27.7ZM113.4 30.0023L116.8 15.5386L101.6 30.0023H113.4ZM54.7999 17.7864C55 17.4932 55.2 17.2 55.4 16.9068L54 23.0636C53 21.7932 51.5 21.1091 50.2 20.5227C51.6 20.0341 53.4 19.6432 54.7999 17.7864ZM40.4 12.0205L38.9 18.1773H44.4H44.5C46 18.0795 49 17.8841 49 14.6591C49 12.2159 46.9 12.1182 45.7 12.0205H40.4ZM37.7 23.3568L36.0999 30.2955H42.5C44.1 30.2955 45.6 30.1977 46.7 28.8295C47.3 28.0477 47.5 27.0705 47.5 26.3864C47.5 25.8977 47.4 25.4091 47.2 25.0182C46.5 23.5523 45.1 23.4545 44 23.3568H43.9H37.7ZM85.4 12.9L86.1999 24.725H78.6999L85.4 12.9Z" fill="#FF1924"/>
</g>
<defs>
<clipPath id="clip0_6_9">
<rect width="149" height="43" fill="white"/>
</clipPath>
</defs>
</svg>
